<svg width="20" height="20" viewBox="0 0 20 20" fill="none" xmlns="http://www.w3.org/2000/svg">
<path d="M9.99976 1.0415C14.9472 1.0415 18.9586 5.05211 18.9587 9.99951C18.9587 14.9471 14.9473 18.9585 9.99976 18.9585C5.05235 18.9583 1.04175 14.947 1.04175 9.99951C1.04192 5.05222 5.05246 1.04168 9.99976 1.0415ZM9.99976 2.2915C5.74282 2.29168 2.29192 5.74257 2.29175 9.99951C2.29175 14.2566 5.74271 17.7083 9.99976 17.7085C14.257 17.7085 17.7087 14.2567 17.7087 9.99951C17.7086 5.74247 14.2568 2.2915 9.99976 2.2915ZM9.99976 12.4995C10.46 12.4995 10.8337 12.8733 10.8337 13.3335C10.8336 13.7936 10.4599 14.1665 9.99976 14.1665C9.53978 14.1663 9.16692 13.7935 9.16675 13.3335C9.16675 12.8734 9.53967 12.4997 9.99976 12.4995ZM9.99976 5.2085C11.2079 5.2085 12.1873 6.18787 12.1873 7.396C12.1871 8.19864 11.7549 8.90001 11.113 9.27979C10.9491 9.37678 10.8135 9.48252 10.7253 9.58643C10.6398 9.68722 10.6248 9.75286 10.6248 9.7915V10.8335C10.6246 11.1785 10.3448 11.4585 9.99976 11.4585C9.65484 11.4583 9.37493 11.1784 9.37476 10.8335V9.7915C9.37476 9.3701 9.55972 9.02833 9.77222 8.77783C9.98223 8.53036 10.2442 8.34096 10.4763 8.20361C10.7537 8.0395 10.9371 7.73882 10.9373 7.396C10.9373 6.87823 10.5175 6.4585 9.99976 6.4585C9.48214 6.45867 9.06226 6.87834 9.06226 7.396C9.06208 7.74102 8.78233 8.021 8.43726 8.021C8.09234 8.02082 7.81243 7.74092 7.81226 7.396C7.81226 6.18798 8.79178 5.20867 9.99976 5.2085Z" fill="#2C2D3A"/>
</svg>
