<svg width="20" height="20" viewBox="0 0 20 20" fill="none" xmlns="http://www.w3.org/2000/svg">
<path fill-rule="evenodd" clip-rule="evenodd" d="M10.0001 3.9585C9.11641 3.9585 8.40898 4.23179 6.72162 4.90674L4.38123 5.84289C3.5392 6.1797 2.95573 6.41399 2.57754 6.61226C2.54058 6.63163 2.50727 6.64982 2.47731 6.66683C2.50727 6.68384 2.54058 6.70203 2.57754 6.7214C2.95573 6.91967 3.5392 7.15395 4.38123 7.49077L6.72162 8.42692C8.40898 9.10187 9.11641 9.37516 10.0001 9.37516C10.8838 9.37516 11.5912 9.10187 13.2785 8.42692L15.6189 7.49077C16.461 7.15395 17.0444 6.91967 17.4226 6.7214C17.4596 6.70203 17.4929 6.68384 17.5229 6.66683C17.4929 6.64982 17.4596 6.63163 17.4226 6.61226C17.0444 6.41399 16.461 6.1797 15.6189 5.84289L13.2785 4.90674C11.5912 4.23179 10.8838 3.9585 10.0001 3.9585ZM6.35377 3.70758C7.91775 3.08179 8.85072 2.7085 10.0001 2.7085C11.1494 2.7085 12.0824 3.08179 13.6464 3.70758C13.6783 3.72033 13.7104 3.73318 13.7428 3.74614L16.121 4.69741C16.9164 5.01559 17.5607 5.2733 18.003 5.50517C18.2269 5.62252 18.4437 5.75556 18.6109 5.91594C18.7827 6.08073 18.9584 6.33064 18.9584 6.66683C18.9584 7.00302 18.7827 7.25293 18.6109 7.41772C18.4437 7.5781 18.2269 7.71114 18.003 7.82849C17.71 7.98212 17.3282 8.1471 16.8726 8.3335C17.3282 8.51989 17.71 8.68487 18.003 8.83851C18.2269 8.95585 18.4437 9.08889 18.6109 9.24928C18.7827 9.41406 18.9584 9.66398 18.9584 10.0002C18.9584 10.3363 18.7827 10.5863 18.6109 10.751C18.4437 10.9114 18.2269 11.0445 18.003 11.1618C17.71 11.3155 17.3282 11.4804 16.8726 11.6668C17.3282 11.8532 17.71 12.0182 18.003 12.1718C18.2269 12.2892 18.4437 12.4222 18.6109 12.5826C18.7827 12.7474 18.9584 12.9973 18.9584 13.3335C18.9584 13.6697 18.7827 13.9196 18.6109 14.0844C18.4437 14.2448 18.2269 14.3778 18.003 14.4952C17.5608 14.727 16.9165 14.9847 16.121 15.3029L13.7428 16.2542C13.7104 16.2671 13.6783 16.28 13.6464 16.2927C12.0824 16.9185 11.1494 17.2918 10.0001 17.2918C8.85072 17.2918 7.91776 16.9185 6.35377 16.2927C6.3219 16.28 6.28977 16.2671 6.25738 16.2542L3.87916 15.3029C3.08369 14.9847 2.43941 14.727 1.99714 14.4952C1.7733 14.3778 1.55646 14.2448 1.38925 14.0844C1.21745 13.9196 1.04175 13.6697 1.04175 13.3335C1.04175 12.9973 1.21745 12.7474 1.38925 12.5826C1.55646 12.4222 1.7733 12.2892 1.99714 12.1718C2.29019 12.0182 2.67193 11.8532 3.12757 11.6668C2.67193 11.4804 2.29019 11.3155 1.99714 11.1618C1.7733 11.0445 1.55646 10.9114 1.38925 10.751C1.21745 10.5863 1.04175 10.3363 1.04175 10.0002C1.04175 9.66398 1.21745 9.41406 1.38925 9.24928C1.55646 9.08889 1.7733 8.95585 1.99714 8.83851C2.29019 8.68487 2.67193 8.51989 3.12757 8.3335C2.67193 8.1471 2.29019 7.98212 1.99714 7.82849C1.7733 7.71114 1.55646 7.5781 1.38925 7.41772C1.21745 7.25293 1.04175 7.00302 1.04175 6.66683C1.04175 6.33064 1.21745 6.08073 1.38925 5.91594C1.55646 5.75556 1.7733 5.62252 1.99714 5.50517C2.43942 5.2733 3.08372 5.01559 3.87922 4.69741L6.25738 3.74614C6.28977 3.73318 6.3219 3.72033 6.35377 3.70758ZM4.80519 9.00664L4.38123 9.17623C3.5392 9.51304 2.95573 9.74732 2.57754 9.94559C2.54058 9.96496 2.50728 9.98315 2.47731 10.0002C2.50728 10.0172 2.54058 10.0354 2.57754 10.0547C2.95573 10.253 3.5392 10.4873 4.38123 10.8241L6.72162 11.7603C8.40898 12.4352 9.11641 12.7085 10.0001 12.7085C10.8838 12.7085 11.5912 12.4352 13.2785 11.7603L15.6189 10.8241C16.461 10.4873 17.0444 10.253 17.4226 10.0547C17.4596 10.0354 17.4929 10.0172 17.5229 10.0002C17.4929 9.98315 17.4596 9.96496 17.4226 9.94559C17.0444 9.74732 16.461 9.51304 15.6189 9.17623L15.195 9.00664L13.7428 9.58752C13.7104 9.60048 13.6783 9.61333 13.6464 9.62608C12.0824 10.2519 11.1494 10.6252 10.0001 10.6252C8.85072 10.6252 7.91776 10.2519 6.35377 9.62608C6.3219 9.61333 6.28977 9.60048 6.25738 9.58752L4.80519 9.00664ZM4.80519 12.34L4.38123 12.5096C3.5392 12.8464 2.95573 13.0807 2.57754 13.2789C2.54058 13.2983 2.50728 13.3165 2.47731 13.3335C2.50728 13.3505 2.54058 13.3687 2.57754 13.3881C2.95573 13.5863 3.5392 13.8206 4.38123 14.1574L6.72162 15.0936C8.40898 15.7685 9.11641 16.0418 10.0001 16.0418C10.8838 16.0418 11.5912 15.7685 13.2785 15.0936L15.6189 14.1574C16.461 13.8206 17.0444 13.5863 17.4226 13.3881C17.4596 13.3687 17.4929 13.3505 17.5229 13.3335C17.4929 13.3165 17.4596 13.2983 17.4226 13.2789C17.0444 13.0807 16.461 12.8464 15.6189 12.5096L15.195 12.34L13.7428 12.9209C13.7104 12.9338 13.6783 12.9467 13.6464 12.9594C12.0824 13.5852 11.1494 13.9585 10.0001 13.9585C8.85072 13.9585 7.91776 13.5852 6.35377 12.9594C6.3219 12.9467 6.28977 12.9338 6.25738 12.9209L4.80519 12.34Z" fill="#2C2D3A"/>
</svg>
