<svg width="20" height="20" viewBox="0 0 20 20" fill="none" xmlns="http://www.w3.org/2000/svg">
<path d="M4.55806 10.4418C4.31398 10.1977 4.31398 9.80197 4.55806 9.5579L6.22473 7.89123C6.4688 7.64715 6.86453 7.64715 7.10861 7.89123C7.35269 8.13531 7.35269 8.53104 7.10861 8.77511L6.50889 9.37484L12.5 9.37484C12.8452 9.37484 13.125 9.65466 13.125 9.99984C13.125 10.345 12.8452 10.6248 12.5 10.6248L6.50889 10.6248L7.10861 11.2246C7.35269 11.4686 7.35269 11.8644 7.10861 12.1084C6.86453 12.3525 6.4688 12.3525 6.22473 12.1084L4.55806 10.4418Z" fill="#F44336"/>
<path fill-rule="evenodd" clip-rule="evenodd" d="M11.6211 1.0415H12.5459C13.6856 1.04149 14.6042 1.04147 15.3266 1.13861C16.0767 1.23945 16.7083 1.4552 17.2099 1.9568C17.7115 2.45839 17.9272 3.08996 18.0281 3.84005C18.1252 4.56252 18.1252 5.48112 18.1252 6.62078V13.3789C18.1252 14.5186 18.1252 15.4372 18.0281 16.1596C17.9272 16.9097 17.7115 17.5413 17.2099 18.0429C16.7083 18.5445 16.0767 18.7602 15.3266 18.8611C14.6042 18.9582 13.6856 18.9582 12.5459 18.9582H11.6211C10.4815 18.9582 9.56286 18.9582 8.84039 18.8611C8.0903 18.7602 7.45874 18.5445 6.95714 18.0429C6.62469 17.7104 6.41724 17.3202 6.28587 16.8747C5.49307 16.8737 4.83255 16.8649 4.29741 16.793C3.66078 16.7074 3.10883 16.5222 2.66825 16.0816C2.22768 15.641 2.04244 15.0891 1.95685 14.4524C1.87497 13.8434 1.87498 13.072 1.875 12.1279V7.87176C1.87498 6.92775 1.87497 6.15629 1.95685 5.54724C2.04244 4.91062 2.22768 4.35867 2.66825 3.91809C3.10883 3.47751 3.66078 3.29228 4.29741 3.20669C4.83255 3.13474 5.49307 3.12602 6.28587 3.12498C6.41724 2.67952 6.62469 2.28924 6.95714 1.9568C7.45874 1.4552 8.0903 1.23945 8.84039 1.13861C9.56286 1.04147 10.4815 1.04149 11.6211 1.0415ZM6.04331 14.17C6.0463 14.7071 6.05516 15.1909 6.0857 15.6241C5.3903 15.6214 4.87333 15.6092 4.46397 15.5541C3.96595 15.4872 3.72175 15.3673 3.55214 15.1977C3.38252 15.0281 3.26266 14.7839 3.1957 14.2859C3.12633 13.7699 3.125 13.0829 3.125 12.0832V7.91651C3.125 6.91674 3.12633 6.2298 3.1957 5.7138C3.26266 5.21579 3.38252 4.97159 3.55214 4.80197C3.72175 4.63236 3.96595 4.5125 4.46397 4.44554C4.87333 4.3905 5.3903 4.37829 6.08571 4.3756C6.05516 4.80878 6.0463 5.29258 6.04331 5.82969C6.04138 6.17487 6.31964 6.45624 6.66482 6.45816C7.00999 6.46008 7.29137 6.18182 7.29329 5.83665C7.29836 4.9254 7.32202 4.2795 7.41207 3.78929C7.49883 3.31695 7.63814 3.04356 7.84102 2.84068C8.07166 2.61004 8.39547 2.45967 9.00695 2.37746C9.63641 2.29283 10.4707 2.29151 11.6668 2.29151H12.5002C13.6964 2.29151 14.5306 2.29283 15.1601 2.37746C15.7716 2.45967 16.0954 2.61004 16.326 2.84068C16.5566 3.07132 16.707 3.39513 16.7892 4.00661C16.8739 4.63606 16.8752 5.47032 16.8752 6.6665V13.3332C16.8752 14.5294 16.8739 15.3636 16.7892 15.9931C16.707 16.6046 16.5566 16.9284 16.326 17.159C16.0954 17.3896 15.7716 17.54 15.1601 17.6222C14.5306 17.7068 13.6964 17.7082 12.5002 17.7082H11.6668C10.4707 17.7082 9.63641 17.7068 9.00695 17.6222C8.39547 17.54 8.07166 17.3896 7.84102 17.159C7.63814 16.9561 7.49883 16.6827 7.41207 16.2104C7.32202 15.7202 7.29836 15.0743 7.29329 14.163C7.29137 13.8179 7.00999 13.5396 6.66482 13.5415C6.31964 13.5434 6.04138 13.8248 6.04331 14.17Z" fill="#F44336"/>
</svg>
