<svg width="20" height="20" viewBox="0 0 20 20" fill="none" xmlns="http://www.w3.org/2000/svg">
<path fill-rule="evenodd" clip-rule="evenodd" d="M10.0001 1.0415C6.43328 1.0415 3.54178 3.933 3.54178 7.49984V8.08659C3.54178 8.66736 3.36987 9.23513 3.04772 9.71836L2.09055 11.1541C0.979638 12.8205 1.82773 15.0855 3.75989 15.6125C4.38956 15.7842 5.02456 15.9294 5.66323 16.0482L5.66481 16.0525C6.30564 17.7624 8.0184 18.9582 10.0001 18.9582C11.9817 18.9582 13.6945 17.7624 14.3353 16.0525L14.3369 16.0483C14.9756 15.9295 15.6106 15.7842 16.2403 15.6125C18.1725 15.0855 19.0206 12.8205 17.9097 11.1541L16.9525 9.71836C16.6304 9.23513 16.4584 8.66736 16.4584 8.08659V7.49984C16.4584 3.933 13.567 1.0415 10.0001 1.0415ZM12.8138 16.2806C10.9447 16.504 9.05545 16.504 7.18632 16.2806C7.77878 17.1319 8.80926 17.7082 10.0001 17.7082C11.1909 17.7082 12.2213 17.1319 12.8138 16.2806ZM4.79178 7.49984C4.79178 4.62335 7.12363 2.2915 10.0001 2.2915C12.8766 2.2915 15.2084 4.62335 15.2084 7.49984V8.08659C15.2084 8.91414 15.4534 9.72317 15.9124 10.4117L16.8696 11.8475C17.5073 12.804 17.0205 14.104 15.9114 14.4065C12.0412 15.462 7.959 15.462 4.08878 14.4065C2.97976 14.104 2.49297 12.804 3.13061 11.8475L4.08778 10.4117C4.54683 9.72317 4.79178 8.91414 4.79178 8.08659V7.49984Z" fill="#2C2D3A"/>
</svg>
