<svg width="20" height="20" viewBox="0 0 20 20" fill="none" xmlns="http://www.w3.org/2000/svg">
<path fill-rule="evenodd" clip-rule="evenodd" d="M13.6617 1.68418L13.7171 1.69903C14.6332 1.94451 15.3592 2.13904 15.9303 2.34532C16.5144 2.55633 16.9907 2.7977 17.3831 3.16523C17.9545 3.7004 18.3544 4.393 18.5322 5.15543C18.6543 5.67902 18.6251 6.21222 18.5158 6.82358C18.4089 7.42128 18.2144 8.14731 17.9689 9.06349L17.5227 10.7287C17.2772 11.6449 17.0827 12.3709 16.8764 12.9419C16.6654 13.526 16.424 14.0023 16.0565 14.3947C15.5384 14.9479 14.8726 15.3404 14.1389 15.5261C13.9245 16.0176 13.6114 16.4626 13.2165 16.8326C12.8241 17.2001 12.3477 17.4415 11.7636 17.6525C11.1926 17.8587 10.4666 18.0533 9.55047 18.2987L9.4951 18.3136C8.57892 18.5591 7.85289 18.7536 7.25519 18.8605C6.64383 18.9698 6.11063 18.9989 5.58704 18.8769C4.82461 18.6991 4.13201 18.2992 3.59684 17.7278C3.22931 17.3354 2.98794 16.8591 2.77693 16.275C2.57065 15.7039 2.37612 14.9779 2.13064 14.0618L1.68443 12.3965C1.43895 11.4804 1.24441 10.7543 1.13754 10.1567C1.02821 9.5453 0.99909 9.01211 1.12118 8.48851C1.29895 7.72608 1.69882 7.03348 2.27022 6.49831C2.66262 6.13078 3.13895 5.88941 3.72306 5.6784C4.2941 5.47212 5.02011 5.27759 5.93626 5.03212L5.96396 5.02469C6.18435 4.96564 6.39287 4.90986 6.59029 4.8577C6.91663 3.69176 7.20381 2.86755 7.7635 2.26997C8.29868 1.69858 8.99127 1.29871 9.75371 1.12093C10.2773 0.998846 10.8105 1.02797 11.4219 1.13729C12.0195 1.24417 12.7455 1.4387 13.6617 1.68418ZM6.2126 6.25217C5.30186 6.49626 4.64929 6.67287 4.14775 6.85405C3.6399 7.0375 3.34171 7.2074 3.12471 7.41064C2.73375 7.77681 2.46016 8.25069 2.33852 8.77236C2.27101 9.06191 2.27297 9.40509 2.36802 9.93664C2.46444 10.4758 2.64471 11.1507 2.89926 12.1007L3.33063 13.7105C3.58518 14.6606 3.76647 15.3351 3.95257 15.8503C4.13603 16.3581 4.30592 16.6563 4.50917 16.8733C4.87534 17.2643 5.34922 17.5379 5.87088 17.6595C6.16043 17.727 6.50362 17.7251 7.03516 17.63C7.57437 17.5336 8.24919 17.3533 9.1992 17.0988C10.1492 16.8442 10.8237 16.6629 11.3389 16.4768C11.8468 16.2934 12.145 16.1235 12.362 15.9202C12.4766 15.8128 12.5812 15.6962 12.6748 15.5719C12.5256 15.5509 12.372 15.524 12.2132 15.4924C11.6533 15.3811 10.9808 15.2009 10.1508 14.9785L10.1029 14.9657C9.18678 14.7202 8.46077 14.5257 7.88973 14.3194C7.30561 14.1084 6.82929 13.867 6.43689 13.4995C5.86549 12.9643 5.46562 12.2717 5.28784 11.5093C5.16576 10.9857 5.19488 10.4525 5.3042 9.84112C5.41108 9.24344 5.60561 8.51743 5.8511 7.60129L6.2126 6.25217ZM11.2018 2.36777C10.6703 2.27273 10.3271 2.27076 10.0376 2.33828C9.51589 2.45991 9.04201 2.73351 8.67583 3.12447C8.31241 3.51249 8.08877 4.11194 7.69983 5.53586C7.63662 5.76728 7.56979 6.01669 7.49729 6.28724L7.06593 7.89711C6.81137 8.84712 6.6311 9.52194 6.53468 10.0611C6.43964 10.5927 6.43767 10.9359 6.50519 11.2254C6.62682 11.7471 6.90042 12.221 7.29138 12.5871C7.50838 12.7904 7.80657 12.9603 8.31442 13.1437C8.8296 13.3298 9.50414 13.5111 10.4541 13.7657C11.3087 13.9947 11.942 14.164 12.4569 14.2664C12.9696 14.3684 13.3176 14.3934 13.6027 14.3582C13.6648 14.3506 13.7244 14.34 13.7825 14.3264C14.3041 14.2048 14.778 13.9312 15.1442 13.5402C15.3474 13.3232 15.5173 13.025 15.7008 12.5172C15.8869 12.002 16.0682 11.3275 16.3227 10.3775L16.7541 8.76759C17.0086 7.81758 17.1889 7.14276 17.2853 6.60355C17.3804 6.07201 17.3823 5.72883 17.3148 5.43928C17.1932 4.91761 16.9196 4.44373 16.5286 4.07756C16.3116 3.87431 16.0134 3.70442 15.5056 3.52096C14.9904 3.33486 14.3159 3.15357 13.3659 2.89902C12.4159 2.64446 11.741 2.46419 11.2018 2.36777ZM9.21042 8.1714C9.29976 7.83799 9.64247 7.64012 9.97588 7.72946L14.0006 8.80787C14.334 8.89721 14.5319 9.23992 14.4425 9.57334C14.3532 9.90675 14.0105 10.1046 13.677 10.0153L9.65236 8.93687C9.31894 8.84753 9.12108 8.50482 9.21042 8.1714ZM8.56304 10.5862C8.65238 10.2527 8.99509 10.0549 9.3285 10.1442L11.7433 10.7913C12.0767 10.8806 12.2746 11.2233 12.1853 11.5567C12.0959 11.8901 11.7532 12.088 11.4198 11.9987L9.00498 11.3516C8.67156 11.2623 8.4737 10.9196 8.56304 10.5862Z" fill="#2C2D3A"/>
</svg>
