<svg width="13" height="17" viewBox="0 0 13 17" fill="none" xmlns="http://www.w3.org/2000/svg">
<path d="M6.5 3.70869C5.93195 3.70869 5.37666 3.88088 4.90435 4.2035C4.43204 4.52611 4.06391 4.98466 3.84653 5.52115C3.62915 6.05765 3.57227 6.64798 3.68309 7.21752C3.79391 7.78706 4.06745 8.31021 4.46912 8.72082C4.87079 9.13144 5.38255 9.41107 5.93968 9.52435C6.49681 9.63764 7.0743 9.5795 7.5991 9.35728C8.12391 9.13506 8.57247 8.75874 8.88806 8.27591C9.20365 7.79308 9.37209 7.22542 9.37209 6.64473C9.37209 5.86604 9.0695 5.11925 8.53088 4.56863C7.99225 4.01802 7.26173 3.70869 6.5 3.70869ZM6.5 8.6536C6.11134 8.6536 5.7314 8.53578 5.40824 8.31504C5.08508 8.09431 4.8332 7.78056 4.68447 7.41349C4.53573 7.04642 4.49682 6.6425 4.57264 6.25282C4.64847 5.86313 4.83563 5.50519 5.11045 5.22424C5.38528 4.9433 5.73543 4.75197 6.11662 4.67446C6.49782 4.59694 6.89294 4.63673 7.25202 4.78877C7.6111 4.94082 7.918 5.1983 8.13393 5.52866C8.34986 5.85902 8.46512 6.24741 8.46512 6.64473C8.46512 7.17751 8.25808 7.68848 7.88955 8.06521C7.52102 8.44195 7.02118 8.6536 6.5 8.6536ZM6.5 0C4.77671 0.00204488 3.12457 0.702769 1.90602 1.94845C0.687462 3.19414 0.00200034 4.88306 0 6.64473C0 9.03297 1.08384 11.5696 3.13436 13.9802C4.05986 15.0736 5.10148 16.0583 6.24 16.9162C6.31621 16.9708 6.40698 17 6.5 17C6.59302 17 6.68379 16.9708 6.76 16.9162C7.89852 16.0583 8.94014 15.0736 9.86564 13.9802C11.9162 11.5696 13 9.03528 13 6.64473C12.998 4.88306 12.3125 3.19414 11.094 1.94845C9.87543 0.702769 8.22329 0.00204488 6.5 0ZM6.5 15.9558C5.36628 15.0611 0.906977 11.2512 0.906977 6.64473C0.906977 5.12834 1.49624 3.67405 2.54514 2.6018C3.59403 1.52956 5.01664 0.927171 6.5 0.927171C7.98336 0.927171 9.40597 1.52956 10.4549 2.6018C11.5038 3.67405 12.093 5.12834 12.093 6.64473C12.093 11.2512 7.63372 15.0611 6.5 15.9558Z" fill="white"/>
</svg>
