<svg width="18" height="18" viewBox="0 0 18 18" fill="none" xmlns="http://www.w3.org/2000/svg">
<path fill-rule="evenodd" clip-rule="evenodd" d="M6.70833 6.49984C6.70833 5.23418 7.73435 4.20817 9 4.20817C10.2657 4.20817 11.2917 5.23418 11.2917 6.49984C11.2917 7.76549 10.2657 8.7915 9 8.7915C7.73435 8.7915 6.70833 7.76549 6.70833 6.49984ZM9 5.45817C8.4247 5.45817 7.95833 5.92454 7.95833 6.49984C7.95833 7.07513 8.4247 7.5415 9 7.5415C9.5753 7.5415 10.0417 7.07513 10.0417 6.49984C10.0417 5.92454 9.5753 5.45817 9 5.45817Z" fill="#2C2D3A"/>
<path fill-rule="evenodd" clip-rule="evenodd" d="M9 9.20817C8.00354 9.20817 7.07051 9.40879 6.36347 9.76231C5.69381 10.0971 5.04167 10.6753 5.04167 11.4998L5.04156 11.5519C5.04028 11.9772 5.03813 12.6933 5.71686 13.1846C6.03182 13.4126 6.44741 13.558 6.96224 13.6507C7.48184 13.7441 8.14768 13.7915 9 13.7915C9.85232 13.7915 10.5182 13.7441 11.0378 13.6507C11.5526 13.558 11.9682 13.4126 12.2831 13.1846C12.9619 12.6933 12.9597 11.9772 12.9584 11.5519L12.9583 11.4998C12.9583 10.6753 12.3062 10.0971 11.6365 9.76231C10.9295 9.40879 9.99646 9.20817 9 9.20817ZM6.29167 11.4998C6.29167 11.4039 6.38571 11.1487 6.92249 10.8803C7.42188 10.6306 8.15551 10.4582 9 10.4582C9.84448 10.4582 10.5781 10.6306 11.0775 10.8803C11.6143 11.1487 11.7083 11.4039 11.7083 11.4998C11.7083 12.0036 11.6763 12.0808 11.5502 12.1721C11.4485 12.2457 11.2391 12.3444 10.8164 12.4204C10.3985 12.4956 9.81434 12.5415 9 12.5415C8.18566 12.5415 7.6015 12.4956 7.18359 12.4204C6.76092 12.3444 6.55151 12.2457 6.44981 12.1721C6.32374 12.0808 6.29167 12.0036 6.29167 11.4998Z" fill="#2C2D3A"/>
<path fill-rule="evenodd" clip-rule="evenodd" d="M6.26949 0.7091C7.47277 0.296989 8.21873 0.0415039 9 0.0415039C9.78127 0.0415039 10.5272 0.29699 11.7305 0.709102L12.3367 0.916614C13.5711 1.33917 14.5238 1.66527 15.2058 1.94233C15.5493 2.08189 15.8447 2.21706 16.0825 2.35518C16.3114 2.48809 16.541 2.65387 16.697 2.87612C16.8512 3.0958 16.9309 3.36587 16.981 3.62585C17.0331 3.89614 17.0645 4.22037 17.0847 4.59264C17.125 5.33184 17.125 6.34451 17.125 7.65802V8.99264C17.125 14.0768 13.285 16.5144 11.0014 17.512L10.9788 17.5218C10.6956 17.6456 10.4295 17.7619 10.1237 17.8402C9.80078 17.9228 9.45772 17.9582 9 17.9582C8.54228 17.9582 8.19922 17.9228 7.87634 17.8402C7.57051 17.7619 7.30436 17.6456 7.02119 17.5218L6.99861 17.512C4.71502 16.5144 0.875 14.0768 0.875 8.99264V7.65809C0.875 6.34465 0.875 5.33181 0.915249 4.59264C0.93552 4.22037 0.966927 3.89614 1.01901 3.62585C1.06911 3.36587 1.14884 3.0958 1.30303 2.87612C1.45902 2.65387 1.68862 2.48809 1.91748 2.35518C2.15531 2.21706 2.45065 2.08189 2.79419 1.94233C3.47617 1.66527 4.42885 1.33917 5.66329 0.916618L6.26949 0.7091ZM9 1.2915C8.45188 1.2915 7.91262 1.46787 6.56718 1.92842L6.08984 2.09181C4.82934 2.52329 3.91008 2.83821 3.26466 3.10041C2.9425 3.23129 2.70908 3.34096 2.54524 3.43611C2.46435 3.48309 2.40861 3.52185 2.37139 3.55211C2.33983 3.57776 2.3278 3.59229 2.32608 3.59441C2.32446 3.59703 2.31411 3.61434 2.29952 3.65528C2.28287 3.70204 2.26441 3.76908 2.24643 3.86238C2.21003 4.05125 2.18245 4.31068 2.1634 4.6606C2.12523 5.3616 2.125 6.34012 2.125 7.68038V8.99264C2.125 13.3052 5.34991 15.4277 7.49899 16.3665C7.80856 16.5017 7.98732 16.5783 8.18633 16.6292C8.3764 16.6779 8.60833 16.7082 9 16.7082C9.39167 16.7082 9.6236 16.6779 9.81367 16.6292C10.0127 16.5783 10.1914 16.5017 10.501 16.3665C12.6501 15.4277 15.875 13.3052 15.875 8.99264V7.68038C15.875 6.34012 15.8748 5.3616 15.8366 4.6606C15.8175 4.31068 15.79 4.05125 15.7536 3.86238C15.7356 3.76908 15.7171 3.70204 15.7005 3.65528C15.6859 3.61431 15.6755 3.597 15.6739 3.5944C15.6722 3.59227 15.6601 3.57774 15.6286 3.55211C15.5914 3.52185 15.5356 3.48309 15.4548 3.43611C15.2909 3.34096 15.0575 3.23129 14.7353 3.10041C14.0899 2.83821 13.1707 2.52329 11.9102 2.09181L11.4328 1.92842C10.0874 1.46787 9.54812 1.2915 9 1.2915Z" fill="#2C2D3A"/>
</svg>
