<svg width="48" height="48" viewBox="0 0 48 48" fill="none" xmlns="http://www.w3.org/2000/svg">
<path fill-rule="evenodd" clip-rule="evenodd" d="M0 4C0 1.79086 1.79086 0 4 0H44C46.2091 0 48 1.79086 48 4V44C48 46.2091 46.2091 48 44 48H4C1.79086 48 0 46.2091 0 44V4Z" fill="white"/>
<path d="M4 0.5H44C45.933 0.5 47.5 2.067 47.5 4V44C47.5 45.933 45.933 47.5 44 47.5H4C2.067 47.5 0.5 45.933 0.5 44V4C0.5 2.067 2.067 0.5 4 0.5Z" stroke="#E4E4E4" stroke-opacity="0.6"/>
<path d="M22.8156 19.6689L20.2009 25.4637L17.5987 19.6689H14.2639V27.9917L10.5479 19.6689H7.73409L3.93896 28.3073H6.18486L7.01515 26.3794H11.2619L12.1058 28.3073H16.3935V21.8913L19.2382 28.3073H21.1723L24.0814 22.0027V28.3073H26.2123V19.6689H22.8156ZM7.81823 24.5134L9.08781 21.4941L10.4069 24.5134H7.81823Z" fill="#1976D2"/>
<path d="M40.2044 23.8922L44.0614 19.6912H41.318L38.8507 22.369L36.4637 19.6689H27.9751V28.3085H36.1853L38.7739 25.4489L41.2982 28.3308H44.0329L40.2044 23.8922ZM35.063 26.4945H30.0997V24.7856H34.8489V23.1485H30.0997V21.53L35.3389 21.5449L37.4338 23.8922L35.063 26.4945Z" fill="#1976D2"/>
</svg>
