<svg width="26" height="26" viewBox="0 0 26 26" fill="none" xmlns="http://www.w3.org/2000/svg">
<path fill-rule="evenodd" clip-rule="evenodd" d="M18.6335 0C20.7285 0 22.5356 0.69434 23.858 2.00932C25.2404 3.38248 25.9986 5.38017 25.996 7.63516L25.9979 16.6815C26.0002 16.7163 26.0006 16.7512 25.9991 16.786L25.996 18.1666C25.996 22.7322 23.0346 25.8005 18.627 25.8005H7.36248C2.9588 25.8005 0 22.7322 0 18.1666V7.63386C0 3.06829 2.9588 0 7.36248 0H18.6335ZM18.9939 14.0061C18.2278 14.0061 17.3289 15.2642 16.5328 16.3749C15.441 17.9007 14.3114 19.4794 12.6099 19.4794C11.4595 19.4794 10.4054 19.0398 9.4765 18.6506C7.99905 18.0325 7.32938 17.8347 6.67404 18.37C5.36219 19.4429 4.06595 21.3965 3.47034 22.3578C4.41042 23.3197 5.74583 23.861 7.36248 23.861H18.627C21.9168 23.861 24.0417 21.6267 24.0417 18.1666L24.0417 17.1335L24.0117 17.1021C22.8711 15.9359 20.9017 14.0061 18.9939 14.0061ZM18.6335 1.9395H7.36248C4.07796 1.9395 1.95429 4.17509 1.95429 7.63386V18.1666C1.95429 19.0311 2.08686 19.8191 2.33697 20.5148C3.09092 19.3851 4.2296 17.8555 5.43242 16.8727C7.0636 15.5409 8.81986 16.2728 10.2348 16.8637C11.0673 17.2115 11.8542 17.5399 12.6099 17.5399C13.303 17.5399 14.172 16.3245 14.9407 15.2526C16.0078 13.7579 17.2194 12.0667 18.9939 12.0667C20.9413 12.0667 22.7052 13.2544 24.0431 14.433L24.0417 7.63386C24.0443 5.87151 23.5023 4.40007 22.4757 3.3799C21.5272 2.4373 20.1996 1.9395 18.6335 1.9395ZM8.93373 5.41702C10.7981 5.41831 12.3147 6.92336 12.316 8.77235V8.77364C12.316 10.6239 10.7994 12.129 8.93373 12.129C7.06803 12.129 5.5515 10.6239 5.5515 8.77364C5.5515 6.92207 7.06803 5.41702 8.93373 5.41702ZM8.93243 7.35651C8.1455 7.35651 7.50579 7.99138 7.50579 8.77364C7.50579 9.55461 8.1455 10.1895 8.93373 10.1895C9.72066 10.1895 10.3617 9.55461 10.3617 8.77493C10.3604 7.99267 9.71935 7.35781 8.93243 7.35651Z" fill="black"/>
</svg>
