<svg width="18" height="18" viewBox="0 0 18 18" fill="none" xmlns="http://www.w3.org/2000/svg">
<path d="M3.55806 9.44178C3.31398 9.1977 3.31398 8.80197 3.55806 8.5579L5.22473 6.89123C5.4688 6.64715 5.86453 6.64715 6.10861 6.89123C6.35269 7.13531 6.35269 7.53104 6.10861 7.77511L5.50889 8.37484L11.5 8.37484C11.8452 8.37484 12.125 8.65466 12.125 8.99984C12.125 9.34502 11.8452 9.62484 11.5 9.62484L5.50889 9.62484L6.10861 10.2246C6.35269 10.4686 6.35269 10.8644 6.10861 11.1084C5.86453 11.3525 5.4688 11.3525 5.22473 11.1084L3.55806 9.44178Z" fill="#F44336"/>
<path fill-rule="evenodd" clip-rule="evenodd" d="M10.6211 0.0415043H11.5459C12.6856 0.0414875 13.6042 0.0414739 14.3266 0.138608C15.0767 0.239455 15.7083 0.455199 16.2099 0.956796C16.7115 1.45839 16.9272 2.08996 17.0281 2.84005C17.1252 3.56252 17.1252 4.48112 17.1252 5.62078V12.3789C17.1252 13.5186 17.1252 14.4372 17.0281 15.1596C16.9272 15.9097 16.7115 16.5413 16.2099 17.0429C15.7083 17.5445 15.0767 17.7602 14.3266 17.8611C13.6042 17.9582 12.6856 17.9582 11.5459 17.9582H10.6211C9.48146 17.9582 8.56286 17.9582 7.84039 17.8611C7.0903 17.7602 6.45874 17.5445 5.95714 17.0429C5.62469 16.7104 5.41724 16.3202 5.28587 15.8747C4.49307 15.8737 3.83255 15.8649 3.29741 15.793C2.66078 15.7074 2.10883 15.5222 1.66825 15.0816C1.22768 14.641 1.04244 14.0891 0.95685 13.4524C0.874965 12.8434 0.874981 12.072 0.875001 11.1279V6.87176C0.874981 5.92775 0.874965 5.15629 0.95685 4.54724C1.04244 3.91062 1.22768 3.35867 1.66825 2.91809C2.10883 2.47751 2.66078 2.29228 3.29741 2.20669C3.83255 2.13474 4.49307 2.12602 5.28587 2.12498C5.41724 1.67952 5.62469 1.28924 5.95714 0.956796C6.45874 0.455199 7.0903 0.239455 7.84039 0.138608C8.56286 0.0414739 9.48147 0.0414875 10.6211 0.0415043ZM5.04331 13.17C5.0463 13.7071 5.05516 14.1909 5.0857 14.6241C4.3903 14.6214 3.87333 14.6092 3.46397 14.5541C2.96595 14.4872 2.72175 14.3673 2.55214 14.1977C2.38252 14.0281 2.26266 13.7839 2.1957 13.2859C2.12633 12.7699 2.125 12.0829 2.125 11.0832V6.91651C2.125 5.91674 2.12633 5.2298 2.1957 4.7138C2.26266 4.21579 2.38252 3.97159 2.55214 3.80197C2.72175 3.63236 2.96595 3.5125 3.46397 3.44554C3.87333 3.3905 4.3903 3.37829 5.08571 3.3756C5.05516 3.80878 5.0463 4.29258 5.04331 4.82969C5.04138 5.17487 5.31964 5.45624 5.66482 5.45816C6.00999 5.46008 6.29137 5.18182 6.29329 4.83665C6.29836 3.9254 6.32202 3.2795 6.41207 2.78929C6.49883 2.31695 6.63814 2.04356 6.84102 1.84068C7.07166 1.61004 7.39547 1.45967 8.00695 1.37746C8.63641 1.29283 9.47067 1.29151 10.6668 1.29151H11.5002C12.6964 1.29151 13.5306 1.29283 14.1601 1.37746C14.7716 1.45967 15.0954 1.61004 15.326 1.84068C15.5566 2.07132 15.707 2.39513 15.7892 3.00661C15.8739 3.63606 15.8752 4.47032 15.8752 5.6665V12.3332C15.8752 13.5294 15.8739 14.3636 15.7892 14.9931C15.707 15.6046 15.5566 15.9284 15.326 16.159C15.0954 16.3896 14.7716 16.54 14.1601 16.6222C13.5306 16.7068 12.6964 16.7082 11.5002 16.7082H10.6668C9.47067 16.7082 8.63641 16.7068 8.00695 16.6222C7.39547 16.54 7.07166 16.3896 6.84102 16.159C6.63814 15.9561 6.49883 15.6827 6.41207 15.2104C6.32202 14.7202 6.29836 14.0743 6.29329 13.163C6.29137 12.8179 6.00999 12.5396 5.66482 12.5415C5.31964 12.5434 5.04138 12.8248 5.04331 13.17Z" fill="#F44336"/>
</svg>
