<svg width="18" height="19" viewBox="0 0 18 19" fill="none" xmlns="http://www.w3.org/2000/svg">
<mask id="path-1-outside-1_1_12848" maskUnits="userSpaceOnUse" x="-0.52002" y="-0.0478516" width="19" height="19" fill="black">
<rect fill="white" x="-0.52002" y="-0.0478516" width="19" height="19"/>
<path fill-rule="evenodd" clip-rule="evenodd" d="M15.8205 4.90381C16.7385 5.31503 17.3801 6.25384 17.3801 7.3462V12.9412C17.3801 15.884 15.0519 18.2697 12.1801 18.2697H6.72005C5.65404 18.2697 4.73787 17.6123 4.33657 16.6715L11.6601 16.6711C13.8879 16.6711 15.7068 14.8765 15.815 12.6211L15.8201 12.4083L15.8205 4.90381ZM11.14 0.952148C12.5759 0.952148 13.74 2.14498 13.74 3.61641V11.8756C13.74 13.3471 12.5759 14.5399 11.14 14.5399H3.07998C1.64404 14.5399 0.47998 13.3471 0.47998 11.8756V3.61641C0.47998 2.14498 1.64404 0.952148 3.07998 0.952148H11.14Z"/>
</mask>
<path fill-rule="evenodd" clip-rule="evenodd" d="M15.8205 4.90381C16.7385 5.31503 17.3801 6.25384 17.3801 7.3462V12.9412C17.3801 15.884 15.0519 18.2697 12.1801 18.2697H6.72005C5.65404 18.2697 4.73787 17.6123 4.33657 16.6715L11.6601 16.6711C13.8879 16.6711 15.7068 14.8765 15.815 12.6211L15.8201 12.4083L15.8205 4.90381ZM11.14 0.952148C12.5759 0.952148 13.74 2.14498 13.74 3.61641V11.8756C13.74 13.3471 12.5759 14.5399 11.14 14.5399H3.07998C1.64404 14.5399 0.47998 13.3471 0.47998 11.8756V3.61641C0.47998 2.14498 1.64404 0.952148 3.07998 0.952148H11.14Z" fill="white"/>
<path d="M15.8205 4.90381L15.9022 4.72128L15.6205 4.59508L15.6205 4.9038L15.8205 4.90381ZM4.33657 16.6715L4.33656 16.4715L4.03382 16.4715L4.15261 16.75L4.33657 16.6715ZM11.6601 16.6711V16.4711H11.66L11.6601 16.6711ZM15.815 12.6211L16.0148 12.6306L16.0149 12.6258L15.815 12.6211ZM15.8201 12.4083L16.0201 12.4131L16.0201 12.4083L15.8201 12.4083ZM15.8205 4.90381L15.7387 5.08633C16.5855 5.46562 17.18 6.33338 17.18 7.3462H17.3801H17.5801C17.5801 6.17431 16.8916 5.16444 15.9022 4.72128L15.8205 4.90381ZM17.3801 7.3462H17.18V12.9412H17.3801H17.5801V7.3462H17.3801ZM17.3801 12.9412H17.18C17.18 15.7782 14.9369 18.0697 12.1801 18.0697V18.2697V18.4697C15.167 18.4697 17.5801 15.9898 17.5801 12.9412H17.3801ZM12.1801 18.2697V18.0697H6.72005V18.2697V18.4697H12.1801V18.2697ZM6.72005 18.2697V18.0697C5.73916 18.0697 4.8924 17.4648 4.52053 16.5931L4.33657 16.6715L4.15261 16.75C4.58334 17.7597 5.56892 18.4697 6.72005 18.4697V18.2697ZM4.33657 16.6715L4.33658 16.8715L11.6601 16.8711L11.6601 16.6711L11.66 16.4711L4.33656 16.4715L4.33657 16.6715ZM11.6601 16.6711V16.8711C13.9994 16.8711 15.9017 14.9879 16.0147 12.6306L15.815 12.6211L15.6152 12.6115C15.5119 14.7651 13.7764 16.4711 11.6601 16.4711V16.6711ZM15.815 12.6211L16.0149 12.6258L16.02 12.4131L15.8201 12.4083L15.6201 12.4035L15.615 12.6163L15.815 12.6211ZM15.8201 12.4083L16.0201 12.4083L16.0205 4.90382L15.8205 4.90381L15.6205 4.9038L15.6201 12.4083L15.8201 12.4083ZM11.14 0.952148V1.15215C12.4609 1.15215 13.54 2.2508 13.54 3.61641H13.74H13.94C13.94 2.03915 12.691 0.752148 11.14 0.752148V0.952148ZM13.74 3.61641H13.54V11.8756H13.74H13.94V3.61641H13.74ZM13.74 11.8756H13.54C13.54 13.2412 12.4609 14.3399 11.14 14.3399V14.5399V14.7399C12.691 14.7399 13.94 13.4529 13.94 11.8756H13.74ZM11.14 14.5399V14.3399H3.07998V14.5399V14.7399H11.14V14.5399ZM3.07998 14.5399V14.3399C1.75907 14.3399 0.67998 13.2412 0.67998 11.8756H0.47998H0.27998C0.27998 13.4529 1.52901 14.7399 3.07998 14.7399V14.5399ZM0.47998 11.8756H0.67998V3.61641H0.47998H0.27998V11.8756H0.47998ZM0.47998 3.61641H0.67998C0.67998 2.2508 1.75907 1.15215 3.07998 1.15215V0.952148V0.752148C1.52901 0.752148 0.27998 2.03915 0.27998 3.61641H0.47998ZM3.07998 0.952148V1.15215H11.14V0.952148V0.752148H3.07998V0.952148Z" fill="black" fill-opacity="0.2" mask="url(#path-1-outside-1_1_12848)"/>
</svg>
