<svg width="48" height="48" viewBox="0 0 48 48" fill="none" xmlns="http://www.w3.org/2000/svg">
<path fill-rule="evenodd" clip-rule="evenodd" d="M0 4C0 1.79086 1.79086 0 4 0H44C46.2091 0 48 1.79086 48 4V44C48 46.2091 46.2091 48 44 48H4C1.79086 48 0 46.2091 0 44V4Z" fill="white"/>
<path d="M4 0.5H44C45.933 0.5 47.5 2.067 47.5 4V44C47.5 45.933 45.933 47.5 44 47.5H4C2.067 47.5 0.5 45.933 0.5 44V4C0.5 2.067 2.067 0.5 4 0.5Z" stroke="#E4E4E4" stroke-opacity="0.6"/>
<path d="M20.3501 15.4049L20.3543 15.4066C20.4419 15.0336 20.7601 14.7592 21.1584 14.7592H32.5007C32.515 14.7592 32.5293 14.7533 32.5436 14.7541C32.302 10.7306 28.9267 8.86572 25.9489 8.86572H14.6065C14.2075 8.86572 13.8892 9.14777 13.8025 9.51989L13.7983 9.51821L8.84025 32.282L8.85119 32.2828C8.83941 32.3367 8.81836 32.3881 8.81836 32.4462C8.81836 32.9117 9.1947 33.2805 9.66028 33.2805H16.4554L20.3501 15.4049Z" fill="#1565C0"/>
<path d="M32.5437 14.7539C32.5883 15.4914 32.5395 16.2938 32.3509 17.1803C31.2724 22.2276 27.3735 24.8544 22.5552 24.8544C22.5552 24.8544 19.6337 24.8544 18.924 24.8544C18.4853 24.8544 18.2782 25.112 18.1831 25.309L16.7182 32.0856L16.4614 33.2887H16.4563L15.393 38.1685L15.4039 38.1693C15.3921 38.2232 15.3711 38.2746 15.3711 38.3327C15.3711 38.7982 15.7474 39.1746 16.213 39.1746H22.3868L22.3977 39.1662C22.7951 39.1603 23.1108 38.8765 23.1934 38.5027L23.2085 38.4901L24.7341 31.4045C24.7341 31.4045 24.8401 30.7285 25.5507 30.7285C26.2613 30.7285 29.0683 30.7285 29.0683 30.7285C33.8866 30.7285 37.8251 28.1135 38.9044 23.0653C40.1184 17.374 36.0587 14.775 32.5437 14.7539Z" fill="#039BE5"/>
<path d="M21.1583 14.7589C20.7592 14.7589 20.441 15.0334 20.3543 15.4063L20.3501 15.4047L18.1821 25.3098C18.2773 25.1128 18.4844 24.8552 18.923 24.8552C19.6336 24.8552 22.4885 24.8552 22.4885 24.8552C27.3068 24.8552 31.2714 22.2284 32.3499 17.1811C32.5394 16.2946 32.5873 15.4922 32.5427 14.7547C32.5293 14.753 32.5141 14.7589 32.5006 14.7589H21.1583Z" fill="#283593"/>
</svg>
