<svg width="18" height="18" viewBox="0 0 18 18" fill="none" xmlns="http://www.w3.org/2000/svg">
<path fill-rule="evenodd" clip-rule="evenodd" d="M12.6617 0.684183L12.7171 0.699034C13.6332 0.944508 14.3592 1.13904 14.9303 1.34532C15.5144 1.55633 15.9907 1.7977 16.3831 2.16523C16.9545 2.7004 17.3544 3.393 17.5322 4.15543C17.6543 4.67902 17.6251 5.21222 17.5158 5.82358C17.4089 6.42128 17.2144 7.14731 16.9689 8.06349L16.5227 9.72875C16.2772 10.6449 16.0827 11.3709 15.8764 11.9419C15.6654 12.526 15.424 13.0023 15.0565 13.3947C14.5384 13.9479 13.8726 14.3404 13.1389 14.5261C12.9245 15.0176 12.6114 15.4626 12.2165 15.8326C11.8241 16.2001 11.3477 16.4415 10.7636 16.6525C10.1926 16.8587 9.46659 17.0533 8.55047 17.2987L8.4951 17.3136C7.57892 17.5591 6.85289 17.7536 6.25519 17.8605C5.64383 17.9698 5.11063 17.9989 4.58704 17.8769C3.82461 17.6991 3.13201 17.2992 2.59684 16.7278C2.22931 16.3354 1.98794 15.8591 1.77693 15.275C1.57065 14.7039 1.37612 13.9779 1.13064 13.0618L0.684433 11.3965C0.438948 10.4804 0.244411 9.75434 0.137536 9.15666C0.028214 8.5453 -0.000909843 8.01211 0.121175 7.48851C0.29895 6.72608 0.69882 6.03348 1.27022 5.49831C1.66262 5.13078 2.13895 4.88941 2.72306 4.6784C3.2941 4.47212 4.02011 4.27759 4.93626 4.03212L4.96396 4.02469C5.18435 3.96564 5.39287 3.90986 5.59029 3.8577C5.91663 2.69176 6.20381 1.86755 6.7635 1.26997C7.29868 0.698576 7.99127 0.298706 8.75371 0.120931C9.2773 -0.00115398 9.8105 0.0279699 10.4219 0.137292C11.0195 0.244166 11.7455 0.4387 12.6617 0.684183ZM5.2126 5.25217C4.30186 5.49626 3.64929 5.67287 3.14775 5.85405C2.6399 6.0375 2.34171 6.2074 2.12471 6.41064C1.73375 6.77681 1.46016 7.25069 1.33852 7.77236C1.27101 8.06191 1.27297 8.40509 1.36802 8.93664C1.46444 9.47585 1.64471 10.1507 1.89926 11.1007L2.33063 12.7105C2.58518 13.6606 2.76647 14.3351 2.95257 14.8503C3.13603 15.3581 3.30592 15.6563 3.50917 15.8733C3.87534 16.2643 4.34922 16.5379 4.87088 16.6595C5.16043 16.727 5.50362 16.7251 6.03516 16.63C6.57437 16.5336 7.24919 16.3533 8.1992 16.0988C9.1492 15.8442 9.82375 15.6629 10.3389 15.4768C10.8468 15.2934 11.145 15.1235 11.362 14.9202C11.4766 14.8128 11.5812 14.6962 11.6748 14.5719C11.5256 14.5509 11.372 14.524 11.2132 14.4924C10.6533 14.3811 9.9808 14.2009 9.15077 13.9785L9.10292 13.9657C8.18678 13.7202 7.46077 13.5257 6.88973 13.3194C6.30561 13.1084 5.82929 12.867 5.43689 12.4995C4.86549 11.9643 4.46562 11.2717 4.28784 10.5093C4.16576 9.98568 4.19488 9.45248 4.3042 8.84112C4.41108 8.24344 4.60561 7.51743 4.8511 6.60129L5.2126 5.25217ZM10.2018 1.36777C9.67029 1.27273 9.3271 1.27076 9.03755 1.33828C8.51589 1.45991 8.04201 1.73351 7.67583 2.12447C7.31241 2.51249 7.08877 3.11194 6.69983 4.53586C6.63662 4.76728 6.56979 5.01669 6.49729 5.28724L6.06593 6.89711C5.81137 7.84712 5.6311 8.52194 5.53468 9.06115C5.43964 9.59269 5.43767 9.93588 5.50519 10.2254C5.62682 10.7471 5.90042 11.221 6.29138 11.5871C6.50838 11.7904 6.80657 11.9603 7.31442 12.1437C7.8296 12.3298 8.50414 12.5111 9.45415 12.7657C10.3087 12.9947 10.942 13.164 11.4569 13.2664C11.9696 13.3684 12.3176 13.3934 12.6027 13.3582C12.6648 13.3506 12.7244 13.34 12.7825 13.3264C13.3041 13.2048 13.778 12.9312 14.1442 12.5402C14.3474 12.3232 14.5173 12.025 14.7008 11.5172C14.8869 11.002 15.0682 10.3275 15.3227 9.37746L15.7541 7.76759C16.0086 6.81758 16.1889 6.14276 16.2853 5.60355C16.3804 5.07201 16.3823 4.72883 16.3148 4.43928C16.1932 3.91761 15.9196 3.44373 15.5286 3.07756C15.3116 2.87431 15.0134 2.70442 14.5056 2.52096C13.9904 2.33486 13.3159 2.15357 12.3659 1.89902C11.4159 1.64446 10.741 1.46419 10.2018 1.36777ZM8.21042 7.1714C8.29976 6.83799 8.64247 6.64012 8.97588 6.72946L13.0006 7.80787C13.334 7.89721 13.5319 8.23992 13.4425 8.57334C13.3532 8.90675 13.0105 9.10462 12.677 9.01528L8.65236 7.93687C8.31894 7.84753 8.12108 7.50482 8.21042 7.1714ZM7.56304 9.58616C7.65238 9.25274 7.99509 9.05488 8.3285 9.14421L10.7433 9.79126C11.0767 9.8806 11.2746 10.2233 11.1853 10.5567C11.0959 10.8901 10.7532 11.088 10.4198 10.9987L8.00498 10.3516C7.67156 10.2623 7.4737 9.91957 7.56304 9.58616Z" fill="#2C2D3A"/>
</svg>
