<svg width="20" height="18" viewBox="0 0 20 18" fill="none" xmlns="http://www.w3.org/2000/svg">
<path fill-rule="evenodd" clip-rule="evenodd" d="M9.99992 0.0415039C7.81379 0.0415039 6.04159 1.81371 6.04159 3.99984C6.04159 6.18596 7.81379 7.95817 9.99992 7.95817C12.186 7.95817 13.9583 6.18596 13.9583 3.99984C13.9583 1.81371 12.186 0.0415039 9.99992 0.0415039ZM7.29159 3.99984C7.29159 2.50407 8.50415 1.2915 9.99992 1.2915C11.4957 1.2915 12.7083 2.50407 12.7083 3.99984C12.7083 5.49561 11.4957 6.70817 9.99992 6.70817C8.50415 6.70817 7.29159 5.49561 7.29159 3.99984Z" fill="#2C2D3A"/>
<path d="M14.9999 1.70817C14.6547 1.70817 14.3749 1.98799 14.3749 2.33317C14.3749 2.67835 14.6547 2.95817 14.9999 2.95817C16.147 2.95817 16.8749 3.71295 16.8749 4.4165C16.8749 5.12006 16.147 5.87484 14.9999 5.87484C14.6547 5.87484 14.3749 6.15466 14.3749 6.49984C14.3749 6.84502 14.6547 7.12484 14.9999 7.12484C16.6143 7.12484 18.1249 6.01413 18.1249 4.4165C18.1249 2.81888 16.6143 1.70817 14.9999 1.70817Z" fill="#2C2D3A"/>
<path d="M5.62492 2.33317C5.62492 1.98799 5.3451 1.70817 4.99992 1.70817C3.38557 1.70817 1.87492 2.81888 1.87492 4.4165C1.87492 6.01413 3.38557 7.12484 4.99992 7.12484C5.3451 7.12484 5.62492 6.84502 5.62492 6.49984C5.62492 6.15466 5.3451 5.87484 4.99992 5.87484C3.85285 5.87484 3.12492 5.12006 3.12492 4.4165C3.12492 3.71295 3.85285 2.95817 4.99992 2.95817C5.3451 2.95817 5.62492 2.67835 5.62492 2.33317Z" fill="#2C2D3A"/>
<path fill-rule="evenodd" clip-rule="evenodd" d="M9.99992 9.20817C8.51303 9.20817 7.13863 9.60883 6.1177 10.2895C5.10114 10.9672 4.37492 11.972 4.37492 13.1665C4.37492 14.361 5.10114 15.3659 6.1177 16.0436C7.13863 16.7242 8.51303 17.1248 9.99992 17.1248C11.4868 17.1248 12.8612 16.7242 13.8821 16.0436C14.8987 15.3659 15.6249 14.361 15.6249 13.1665C15.6249 11.972 14.8987 10.9672 13.8821 10.2895C12.8612 9.60883 11.4868 9.20817 9.99992 9.20817ZM5.62492 13.1665C5.62492 12.52 6.01799 11.8582 6.81107 11.3295C7.59979 10.8037 8.72539 10.4582 9.99992 10.4582C11.2745 10.4582 12.4001 10.8037 13.1888 11.3295C13.9818 11.8582 14.3749 12.52 14.3749 13.1665C14.3749 13.813 13.9818 14.4748 13.1888 15.0035C12.4001 15.5293 11.2745 15.8748 9.99992 15.8748C8.72539 15.8748 7.59979 15.5293 6.81107 15.0035C6.01799 14.4748 5.62492 13.813 5.62492 13.1665Z" fill="#2C2D3A"/>
<path d="M16.0561 10.5326C16.13 10.1955 16.4633 9.98207 16.8005 10.056C17.602 10.2318 18.3243 10.5493 18.8606 10.9881C19.3964 11.4265 19.7916 12.0292 19.7916 12.7498C19.7916 13.4705 19.3964 14.0731 18.8606 14.5116C18.3243 14.9504 17.602 15.2679 16.8005 15.4437C16.4633 15.5176 16.13 15.3042 16.0561 14.967C15.9822 14.6299 16.1955 14.2966 16.5327 14.2227C17.193 14.0779 17.7207 13.8292 18.069 13.5442C18.4177 13.2588 18.5416 12.9801 18.5416 12.7498C18.5416 12.5196 18.4177 12.2409 18.069 11.9555C17.7207 11.6705 17.193 11.4218 16.5327 11.277C16.1955 11.2031 15.9822 10.8698 16.0561 10.5326Z" fill="#2C2D3A"/>
<path d="M3.19937 10.056C3.53654 9.98207 3.86981 10.1955 3.94375 10.5326C4.01768 10.8698 3.8043 11.2031 3.46713 11.277C2.80683 11.4218 2.27913 11.6705 1.93085 11.9555C1.58211 12.2409 1.45825 12.5196 1.45825 12.7498C1.45825 12.9801 1.58211 13.2588 1.93085 13.5442C2.27913 13.8292 2.80683 14.0779 3.46713 14.2227C3.8043 14.2966 4.01768 14.6299 3.94375 14.967C3.86981 15.3042 3.53654 15.5176 3.19937 15.4437C2.39781 15.2679 1.6755 14.9504 1.13925 14.5116C0.603459 14.0731 0.208252 13.4705 0.208252 12.7498C0.208252 12.0292 0.603459 11.4265 1.13925 10.9881C1.6755 10.5493 2.39781 10.2318 3.19937 10.056Z" fill="#2C2D3A"/>
</svg>
