<svg width="22" height="24" viewBox="0 0 22 24" fill="none" xmlns="http://www.w3.org/2000/svg">
<mask id="path-1-outside-1_1_12648" maskUnits="userSpaceOnUse" x="0" y="-0.724854" width="22" height="25" fill="black">
<rect fill="white" y="-0.724854" width="22" height="25"/>
<path fill-rule="evenodd" clip-rule="evenodd" d="M13.5 0.275146C14.3284 0.275146 15 1.37124 15 2.72333V20.6767C15 22.0288 14.3284 23.1249 13.5 23.1249H2.5C1.67157 23.1249 1 22.0288 1 20.6767V2.72333C1 1.37124 1.67157 0.275146 2.5 0.275146H13.5ZM20.8862 3.84624C20.9609 4.07966 21 4.33914 21 4.60254V18.4037C21 19.3051 20.5523 20.0358 20 20.0358C19.8388 20.0358 19.68 19.9722 19.5372 19.8505L17 17.6884V5.3211L19.5366 3.15622C20.026 2.73853 20.6302 3.04746 20.8862 3.84624ZM8 3.53973C5.23858 3.53973 3 7.19336 3 11.7003C3 16.2073 5.23858 19.861 8 19.861C10.7614 19.861 13 16.2073 13 11.7003C13 7.19336 10.7614 3.53973 8 3.53973ZM8 6.80383C9.65685 6.80383 11 8.99601 11 11.7002C11 14.4044 9.65685 16.5966 8 16.5966C6.34315 16.5966 5 14.4044 5 11.7002C5 8.99601 6.34315 6.80383 8 6.80383Z"/>
</mask>
<path fill-rule="evenodd" clip-rule="evenodd" d="M13.5 0.275146C14.3284 0.275146 15 1.37124 15 2.72333V20.6767C15 22.0288 14.3284 23.1249 13.5 23.1249H2.5C1.67157 23.1249 1 22.0288 1 20.6767V2.72333C1 1.37124 1.67157 0.275146 2.5 0.275146H13.5ZM20.8862 3.84624C20.9609 4.07966 21 4.33914 21 4.60254V18.4037C21 19.3051 20.5523 20.0358 20 20.0358C19.8388 20.0358 19.68 19.9722 19.5372 19.8505L17 17.6884V5.3211L19.5366 3.15622C20.026 2.73853 20.6302 3.04746 20.8862 3.84624ZM8 3.53973C5.23858 3.53973 3 7.19336 3 11.7003C3 16.2073 5.23858 19.861 8 19.861C10.7614 19.861 13 16.2073 13 11.7003C13 7.19336 10.7614 3.53973 8 3.53973ZM8 6.80383C9.65685 6.80383 11 8.99601 11 11.7002C11 14.4044 9.65685 16.5966 8 16.5966C6.34315 16.5966 5 14.4044 5 11.7002C5 8.99601 6.34315 6.80383 8 6.80383Z" fill="#FEFFFE"/>
<path d="M20.8862 3.84624L21.0766 3.78522L20.8862 3.84624ZM19.5372 19.8505L19.4074 20.0027L19.5372 19.8505ZM17 17.6884H16.8V17.7807L16.8703 17.8406L17 17.6884ZM17 5.3211L16.8702 5.16897L16.8 5.22886V5.3211H17ZM19.5366 3.15622L19.6665 3.30835L19.5366 3.15622ZM13.5 0.275146V0.475146C13.8184 0.475146 14.1389 0.686581 14.3901 1.09669C14.6393 1.50344 14.8 2.07804 14.8 2.72333H15H15.2C15.2 2.01652 15.0249 1.36703 14.7312 0.887716C14.4396 0.411756 14.01 0.0751465 13.5 0.0751465V0.275146ZM15 2.72333H14.8V20.6767H15H15.2V2.72333H15ZM15 20.6767H14.8C14.8 21.322 14.6393 21.8966 14.3901 22.3033C14.1389 22.7134 13.8184 22.9249 13.5 22.9249V23.1249V23.3249C14.01 23.3249 14.4396 22.9882 14.7312 22.5123C15.0249 22.033 15.2 21.3835 15.2 20.6767H15ZM13.5 23.1249V22.9249H2.5V23.1249V23.3249H13.5V23.1249ZM2.5 23.1249V22.9249C2.18157 22.9249 1.86115 22.7134 1.60988 22.3033C1.36066 21.8966 1.2 21.322 1.2 20.6767H1H0.8C0.8 21.3835 0.975126 22.033 1.2688 22.5123C1.56042 22.9882 1.99 23.3249 2.5 23.3249V23.1249ZM1 20.6767H1.2V2.72333H1H0.8V20.6767H1ZM1 2.72333H1.2C1.2 2.07804 1.36066 1.50344 1.60988 1.09669C1.86115 0.686581 2.18157 0.475146 2.5 0.475146V0.275146V0.0751465C1.99 0.0751465 1.56042 0.411756 1.2688 0.887716C0.975126 1.36703 0.8 2.01652 0.8 2.72333H1ZM2.5 0.275146V0.475146H13.5V0.275146V0.0751465H2.5V0.275146ZM20.8862 3.84624L20.6957 3.90727C20.7637 4.11953 20.8 4.35831 20.8 4.60254H21H21.2C21.2 4.31997 21.1582 4.03978 21.0766 3.78522L20.8862 3.84624ZM21 4.60254H20.8V18.4037H21H21.2V4.60254H21ZM21 18.4037H20.8C20.8 18.8236 20.6953 19.1942 20.5366 19.4533C20.3758 19.7157 20.1804 19.8358 20 19.8358V20.0358V20.2358C20.3719 20.2358 20.6765 19.9905 20.8776 19.6623C21.0808 19.3306 21.2 18.8851 21.2 18.4037H21ZM20 20.0358V19.8358C19.894 19.8358 19.7799 19.7945 19.6669 19.6983L19.5372 19.8505L19.4074 20.0027C19.5802 20.1499 19.7836 20.2358 20 20.2358V20.0358ZM19.5372 19.8505L19.6669 19.6983L17.1297 17.5362L17 17.6884L16.8703 17.8406L19.4074 20.0027L19.5372 19.8505ZM17 17.6884H17.2V5.3211H17H16.8V17.6884H17ZM17 5.3211L17.1298 5.47323L19.6665 3.30835L19.5366 3.15622L19.4068 3.00409L16.8702 5.16897L17 5.3211ZM19.5366 3.15622L19.6665 3.30835C19.8535 3.14872 20.0403 3.13741 20.2079 3.22313C20.3895 3.31596 20.5779 3.5395 20.6957 3.90727L20.8862 3.84624L21.0766 3.78522C20.9385 3.3542 20.6969 3.02389 20.39 2.86698C20.0692 2.70296 19.7092 2.74603 19.4068 3.00409L19.5366 3.15622ZM8 3.53973V3.33973C6.5235 3.33973 5.21893 4.31572 4.29393 5.82543C3.36688 7.33849 2.8 9.41609 2.8 11.7003H3H3.2C3.2 9.47761 3.75241 7.4749 4.635 6.0344C5.51965 4.59055 6.71507 3.73973 8 3.73973V3.53973ZM3 11.7003H2.8C2.8 13.9846 3.36688 16.0622 4.29393 17.5752C5.21893 19.085 6.5235 20.0609 8 20.0609V19.861V19.6609C6.71507 19.6609 5.51965 18.8101 4.635 17.3663C3.75241 15.9258 3.2 13.9231 3.2 11.7003H3ZM8 19.861V20.0609C9.4765 20.0609 10.7811 19.085 11.7061 17.5752C12.6331 16.0622 13.2 13.9846 13.2 11.7003H13H12.8C12.8 13.9231 12.2476 15.9258 11.365 17.3663C10.4803 18.8101 9.28493 19.6609 8 19.6609V19.861ZM13 11.7003H13.2C13.2 9.41609 12.6331 7.33849 11.7061 5.82543C10.7811 4.31572 9.4765 3.33973 8 3.33973V3.53973V3.73973C9.28493 3.73973 10.4803 4.59055 11.365 6.0344C12.2476 7.4749 12.8 9.47761 12.8 11.7003H13ZM8 6.80383V7.00383C8.73264 7.00383 9.42807 7.48929 9.95078 8.34243C10.4714 9.19221 10.8 10.3789 10.8 11.7002H11H11.2C11.2 10.3173 10.857 9.05581 10.2919 8.13346C9.72879 7.21446 8.92421 6.60383 8 6.60383V6.80383ZM11 11.7002H10.8C10.8 13.0215 10.4714 14.2082 9.95078 15.058C9.42807 15.9111 8.73264 16.3966 8 16.3966V16.5966V16.7966C8.92421 16.7966 9.72879 16.1859 10.2919 15.2669C10.857 14.3446 11.2 13.0831 11.2 11.7002H11ZM8 16.5966V16.3966C7.26736 16.3966 6.57194 15.9111 6.04922 15.058C5.52855 14.2082 5.2 13.0215 5.2 11.7002H5H4.8C4.8 13.0831 5.14302 14.3446 5.70814 15.2669C6.27121 16.1859 7.07579 16.7966 8 16.7966V16.5966ZM5 11.7002H5.2C5.2 10.3789 5.52855 9.19221 6.04922 8.34243C6.57194 7.48929 7.26736 7.00383 8 7.00383V6.80383V6.60383C7.07579 6.60383 6.27121 7.21446 5.70814 8.13346C5.14302 9.05581 4.8 10.3173 4.8 11.7002H5Z" fill="black" fill-opacity="0.2" mask="url(#path-1-outside-1_1_12648)"/>
</svg>
