<svg width="48" height="48" viewBox="0 0 48 48" fill="none" xmlns="http://www.w3.org/2000/svg">
<path fill-rule="evenodd" clip-rule="evenodd" d="M0 4C0 1.79086 1.79086 0 4 0H44C46.2091 0 48 1.79086 48 4V44C48 46.2091 46.2091 48 44 48H4C1.79086 48 0 46.2091 0 44V4Z" fill="white"/>
<path d="M4 0.5H44C45.933 0.5 47.5 2.067 47.5 4V44C47.5 45.933 45.933 47.5 44 47.5H4C2.067 47.5 0.5 45.933 0.5 44V4C0.5 2.067 2.067 0.5 4 0.5Z" stroke="#E4E4E4" stroke-opacity="0.6"/>
<path d="M15.0281 17.4624L11.9063 26.773C11.9063 26.773 11.1134 22.8345 11.0349 22.34C9.25771 18.285 6.63525 18.5109 6.63525 18.5109L9.7261 30.539V30.5367H13.4838L18.68 17.4624H15.0281Z" fill="#1565C0"/>
<path d="M18.0044 30.5386H21.4174L23.4811 17.4619H20.0253L18.0044 30.5386Z" fill="#1565C0"/>
<path d="M42.1593 17.4619H38.5679L32.9688 30.5386H36.3592L37.0582 28.671H41.333L41.6968 30.5386H44.8031L42.1593 17.4619ZM38.0044 26.1733L39.8625 21.2316L40.8349 26.1733H38.0044Z" fill="#1565C0"/>
<path d="M28.3227 21.2734C28.3227 20.553 28.9147 20.0168 30.6123 20.0168C31.7155 20.0168 32.9792 20.8181 32.9792 20.8181L33.5332 18.0732C33.5332 18.0732 31.9188 17.4609 30.3342 17.4609C26.7452 17.4609 24.8943 19.1775 24.8943 21.3506C24.8943 25.2808 29.6245 24.7422 29.6245 26.7608C29.6245 27.1067 29.3498 27.9068 27.38 27.9068C25.4043 27.9068 24.1002 27.1828 24.1002 27.1828L23.5117 29.8172C23.5117 29.8172 24.7754 30.5376 27.2172 30.5376C29.6649 30.5376 33.06 28.7068 33.06 26.0773C33.06 22.9139 28.3227 22.6856 28.3227 21.2734Z" fill="#1565C0"/>
<path d="M11.4933 24.5297L10.3449 18.8854C10.3449 18.8854 9.82545 17.6621 8.47499 17.6621C7.12453 17.6621 3.19678 17.6621 3.19678 17.6621C3.19678 17.6621 9.92649 19.6498 11.4933 24.5297Z" fill="#FFC107"/>
</svg>
