<svg width="24" height="24" viewBox="0 0 24 24" fill="none" xmlns="http://www.w3.org/2000/svg">
<path fill-rule="evenodd" clip-rule="evenodd" d="M2 12.0148C2 6.74688 6.21 1.99976 12.02 1.99976C17.7 1.99976 22 6.65674 22 11.9847C22 18.164 16.96 21.9998 12 21.9998C10.36 21.9998 8.54 21.5591 7.08 20.6978C6.57 20.3873 6.14 20.157 5.59 20.3373L3.57 20.9382C3.06 21.0984 2.6 20.6978 2.75 20.157L3.42 17.9136C3.53 17.6032 3.51 17.2727 3.35 17.0123C2.49 15.4299 2 13.6973 2 12.0148ZM7.36998 13.3065C6.66998 13.3065 6.08998 12.7257 6.08998 12.0246C6.08998 11.3135 6.65998 10.7427 7.36998 10.7427C8.07998 10.7427 8.64998 11.3135 8.64998 12.0246C8.64998 12.7257 8.07998 13.2965 7.36998 13.3065ZM10.7 12.0148C10.7 12.7258 11.27 13.2967 11.98 13.3067C12.69 13.3067 13.26 12.7258 13.26 12.0248C13.26 11.3137 12.69 10.7428 11.98 10.7428C11.28 10.7328 10.7 11.3137 10.7 12.0148ZM15.31 12.0248C15.31 12.7259 15.88 13.3068 16.59 13.3068C17.3 13.3068 17.87 12.7259 17.87 12.0248C17.87 11.3138 17.3 10.7429 16.59 10.7429C15.88 10.7429 15.31 11.3138 15.31 12.0248Z" fill="url(#paint0_linear_1_11745)"/>
<defs>
<linearGradient id="paint0_linear_1_11745" x1="12" y1="1.99976" x2="12" y2="21.9998" gradientUnits="userSpaceOnUse">
<stop stop-color="#FDC700"/>
<stop offset="1" stop-color="#D08700"/>
</linearGradient>
</defs>
</svg>
