<svg width="34" height="25" viewBox="0 0 34 25" fill="none" xmlns="http://www.w3.org/2000/svg">
<path d="M7.3831 0.496896C7.54112 0.654369 7.66647 0.841369 7.752 1.04721C7.83753 1.25305 7.88155 1.47369 7.88155 1.69651C7.88155 1.91933 7.83753 2.13997 7.752 2.34581C7.66647 2.55165 7.54112 2.73865 7.3831 2.89612C4.83288 5.44085 3.40021 8.89199 3.40021 12.4905C3.40021 16.089 4.83288 19.5401 7.3831 22.0848C7.54542 22.2412 7.6749 22.4283 7.76397 22.6352C7.85304 22.8421 7.89992 23.0646 7.90188 23.2897C7.90384 23.5148 7.86084 23.7381 7.77539 23.9465C7.68993 24.1549 7.56374 24.3442 7.40417 24.5034C7.2446 24.6626 7.05484 24.7885 6.84598 24.8737C6.63712 24.959 6.41332 25.0019 6.18766 24.9999C5.962 24.998 5.73899 24.9512 5.53165 24.8623C5.3243 24.7735 5.13677 24.6443 4.97999 24.4824C-1.66 17.8595 -1.66 7.11977 4.97999 0.496896C5.2987 0.179027 5.7309 0.000457616 6.18155 0.000457616C6.6322 0.000457616 7.0644 0.179027 7.3831 0.496896ZM29.0213 0.496896C35.6596 7.12147 35.6596 17.8595 29.0213 24.4824C28.7026 24.8005 28.2703 24.9794 27.8195 24.9795C27.3686 24.9797 26.9362 24.8011 26.6173 24.4832C26.2984 24.1653 26.1192 23.734 26.119 23.2842C26.1189 22.8344 26.2978 22.403 26.6165 22.0848C29.1667 19.5401 30.5994 16.089 30.5994 12.4905C30.5994 8.89199 29.1667 5.44085 26.6165 2.89612C26.2976 2.57796 26.1184 2.14645 26.1184 1.69651C26.1184 1.24657 26.2976 0.815053 26.6165 0.496896C26.9354 0.178739 27.3679 8.86943e-09 27.8189 0C28.2699 -8.86943e-09 28.7024 0.178739 29.0213 0.496896ZM12.4256 5.36995C12.7442 5.68792 12.9231 6.11911 12.9231 6.56872C12.9231 7.01832 12.7442 7.44951 12.4256 7.76748C11.8069 8.38468 11.3161 9.11743 10.9812 9.92388C10.6464 10.7303 10.474 11.5947 10.474 12.4676C10.474 13.3405 10.6464 14.2048 10.9812 15.0113C11.3161 15.8177 11.8069 16.5505 12.4256 17.1677C12.5833 17.3252 12.7085 17.5122 12.7938 17.718C12.8792 17.9238 12.9231 18.1443 12.923 18.3671C12.9229 18.5898 12.8789 18.8103 12.7934 19.016C12.7079 19.2217 12.5826 19.4086 12.4247 19.5661C12.2668 19.7235 12.0794 19.8483 11.8731 19.9335C11.6668 20.0187 11.4458 20.0624 11.2225 20.0624C10.9993 20.0623 10.7783 20.0183 10.5721 19.933C10.3659 19.8477 10.1785 19.7228 10.0207 19.5652C8.134 17.6828 7.07404 15.1297 7.07404 12.4676C7.07404 9.80547 8.134 7.25238 10.0207 5.36995C10.1786 5.2123 10.366 5.08724 10.5723 5.00191C10.7787 4.91658 10.9998 4.87266 11.2231 4.87266C11.4465 4.87266 11.6676 4.91658 11.874 5.00191C12.0803 5.08724 12.2677 5.2123 12.4256 5.36995ZM24.2508 5.36995C26.1375 7.25238 27.1975 9.80547 27.1975 12.4676C27.1975 15.1297 26.1375 17.6828 24.2508 19.5652C23.9302 19.8741 23.5009 20.045 23.0553 20.0411C22.6097 20.0373 22.1835 19.8589 21.8683 19.5446C21.5532 19.2302 21.3745 18.8049 21.3706 18.3604C21.3668 17.9158 21.5381 17.4875 21.8476 17.1677C22.4663 16.5505 22.9571 15.8177 23.292 15.0113C23.6268 14.2048 23.7992 13.3405 23.7992 12.4676C23.7992 11.5947 23.6268 10.7303 23.292 9.92388C22.9571 9.11743 22.4663 8.38468 21.8476 7.76748C21.5381 7.44769 21.3668 7.01939 21.3706 6.57482C21.3745 6.13025 21.5532 5.70498 21.8683 5.39061C22.1835 5.07623 22.6097 4.89791 23.0553 4.89405C23.5009 4.89019 23.9302 5.06109 24.2508 5.36995ZM17.1366 10.0667C17.8127 10.0667 18.4611 10.3346 18.9392 10.8116C19.4173 11.2886 19.6859 11.9355 19.6859 12.61C19.6859 13.2846 19.4173 13.9315 18.9392 14.4084C18.4611 14.8854 17.8127 15.1534 17.1366 15.1534C16.4605 15.1534 15.8121 14.8854 15.334 14.4084C14.8559 13.9315 14.5873 13.2846 14.5873 12.61C14.5873 11.9355 14.8559 11.2886 15.334 10.8116C15.8121 10.3346 16.4605 10.0667 17.1366 10.0667Z" fill="#E6E6E6"/>
</svg>
