<svg width="18" height="22" viewBox="0 0 18 22" fill="none" xmlns="http://www.w3.org/2000/svg">
<path fill-rule="evenodd" clip-rule="evenodd" d="M7.12748 19.1949C7.63156 19.7745 8.27869 20.093 8.95015 20.093H8.95113C9.6255 20.093 10.2756 19.7745 10.7806 19.1939C11.0511 18.8854 11.5124 18.8603 11.8112 19.1386C12.1109 19.4169 12.1352 19.8941 11.8656 20.2025C11.0794 21.1037 10.0449 21.6 8.95113 21.6H8.94918C7.8583 21.599 6.82581 21.1027 6.04244 20.2015C5.77288 19.8931 5.79721 19.4159 6.09694 19.1386C6.39666 18.8593 6.85792 18.8844 7.12748 19.1949ZM8.99861 0C13.3242 0 16.2299 3.4781 16.2299 6.72614C16.2299 8.39687 16.6416 9.10515 17.0785 9.85663C17.5106 10.5981 18.0001 11.44 18.0001 13.0313C17.6604 17.0972 13.549 17.4287 8.99861 17.4287C4.44826 17.4287 0.335817 17.0972 7.39158e-05 13.0956C-0.00283248 11.44 0.486652 10.5981 0.918721 9.85663L1.07125 9.59156C1.44681 8.92518 1.76729 8.20032 1.76729 6.72614C1.76729 3.4781 4.67305 0 8.99861 0ZM8.99861 1.50698C5.59753 1.50698 3.22698 4.25771 3.22698 6.72614C3.22698 8.81481 2.66549 9.78028 2.16919 10.6322C1.77118 11.3164 1.45686 11.8569 1.45686 13.0313C1.61937 14.9261 2.83092 15.9217 8.99861 15.9217C15.1322 15.9217 16.3817 14.8819 16.5433 12.966C16.5404 11.8569 16.226 11.3164 15.828 10.6322C15.3317 9.78028 14.7702 8.81481 14.7702 6.72614C14.7702 4.25771 12.3997 1.50698 8.99861 1.50698Z" fill="url(#paint0_linear_1_11856)"/>
<defs>
<linearGradient id="paint0_linear_1_11856" x1="9.00006" y1="0" x2="9.00006" y2="21.6" gradientUnits="userSpaceOnUse">
<stop stop-color="#FDC700"/>
<stop offset="1" stop-color="#D08700"/>
</linearGradient>
</defs>
</svg>
