<svg width="26" height="26" viewBox="0 0 26 26" fill="none" xmlns="http://www.w3.org/2000/svg">
<path fill-rule="evenodd" clip-rule="evenodd" d="M18.6668 0C23.0529 0 26 3.05526 26 7.60215V18.1983C26 22.7452 23.0529 25.8005 18.6668 25.8005H7.33321C2.94707 25.8005 0 22.7452 0 18.1983V7.60215C0 3.05526 2.94707 0 7.33321 0H18.6668ZM18.6668 1.80003H7.33321C3.98102 1.80003 1.81395 4.07648 1.81395 7.60215V18.1983C1.81395 21.724 3.98102 24.0005 7.33321 24.0005H18.6668C22.0202 24.0005 24.186 21.724 24.186 18.1983V7.60215C24.186 4.07648 22.0202 1.80003 18.6668 1.80003ZM13 7.59291C13.5007 7.59291 13.907 7.99611 13.907 8.49292V11.9882L17.4339 11.9885C17.9346 11.9885 18.3409 12.3917 18.3409 12.8885C18.3409 13.3853 17.9346 13.7885 17.4339 13.7885L13.907 13.7883V17.2855C13.907 17.7823 13.5007 18.1855 13 18.1855C12.4993 18.1855 12.093 17.7823 12.093 17.2855V13.7883L8.56609 13.7885C8.06423 13.7885 7.65912 13.3853 7.65912 12.8885C7.65912 12.3917 8.06423 11.9885 8.56609 11.9885L12.093 11.9882V8.49292C12.093 7.99611 12.4993 7.59291 13 7.59291Z" fill="#006175"/>
</svg>
