<svg width="22" height="23" viewBox="0 0 22 23" fill="none" xmlns="http://www.w3.org/2000/svg">
    <path
        d="M14.9965 10.1533H15.0054M10.9955 10.1533H11.0045M6.99451 10.1533H7.00349M7.5 18.1293H7C3 18.1293 1 17.1323 1 12.1473V7.16223C1 3.17419 3 1.18018 7 1.18018H15C19 1.18018 21 3.17419 21 7.16223V12.1473C21 16.1353 19 18.1293 15 18.1293H14.5C14.19 18.1293 13.89 18.2789 13.7 18.5281L12.2 20.5222C11.54 21.3995 10.46 21.3995 9.8 20.5222L8.3 18.5281C8.14 18.3088 7.77 18.1293 7.5 18.1293Z"
        stroke="#292D32" stroke-width="2" stroke-linecap="round" stroke-linejoin="round" />
</svg>