<svg width="20" height="20" viewBox="0 0 20 20" fill="none" xmlns="http://www.w3.org/2000/svg">
<path d="M6.16992 0.5H6.26367L6.47949 0.510742C6.98124 0.54607 7.46823 0.648618 7.94238 0.818359L7.97168 0.828125L7.98926 0.845703L8.09961 0.883789C8.30409 0.952937 8.47931 1.02436 8.63965 1.11719L8.6582 1.12793L8.67676 1.13672L9.0293 1.30176C9.07086 1.32562 9.12806 1.36575 9.20215 1.42188C9.26105 1.4665 9.35805 1.54385 9.42969 1.58984L9.43652 1.59375C9.55527 1.66749 9.62673 1.7094 9.68555 1.75684L9.99902 2.00977L10.3135 1.75684C11.3385 0.932461 12.5763 0.490646 13.8457 0.5H13.8496C14.4313 0.5 15.0042 0.587066 15.543 0.777344L15.5479 0.77832C18.8969 1.92446 20.2041 5.84589 19.1416 9.41309C18.5345 11.2423 17.5448 12.9088 16.2539 14.2695C14.3554 16.2048 12.2727 17.9229 10.0322 19.4043C7.78041 17.9327 5.68313 16.2127 3.76367 14.2646C2.55577 12.9843 1.60691 11.4423 0.984375 9.74121L0.864258 9.39844C-0.208457 5.83881 1.09558 1.92308 4.4834 0.755859L4.49121 0.753906C4.73847 0.664158 4.99324 0.600433 5.24805 0.563477H5.36816L5.40625 0.557617C5.66086 0.518533 5.91431 0.500001 6.16992 0.5ZM15.2285 2.81641C14.5708 2.65498 13.922 3.05603 13.7061 3.69238L13.7031 3.70215C13.4902 4.37491 13.8136 5.13984 14.4961 5.40039V5.40137C14.9287 5.57188 15.25 6.03926 15.25 6.58887V6.62109C15.2317 6.96791 15.3333 7.31023 15.5459 7.58203C15.7787 7.87955 16.1192 8.04193 16.46 8.07617L16.4922 8.08008L16.5244 8.0791C17.2121 8.05944 17.7528 7.49071 17.7988 6.81152L17.7998 6.79492V6.65332C17.8298 4.9903 16.871 3.46001 15.375 2.8623L15.3682 2.85938L15.3604 2.85645L15.2285 2.81641Z" fill="#EC1C24" stroke="black"/>
</svg>
