<svg width="26" height="25" viewBox="0 0 26 25" fill="none" xmlns="http://www.w3.org/2000/svg">
<path d="M13.2847 13.291C13.2119 13.2806 13.1183 13.2806 13.0351 13.291C11.2047 13.2286 9.74872 11.731 9.74872 9.8902C9.74872 8.0078 11.2671 6.479 13.1599 6.479C15.0423 6.479 16.5711 8.0078 16.5711 9.8902C16.5607 11.731 15.1151 13.2286 13.2847 13.291Z" stroke="black" stroke-width="1.56" stroke-linecap="round" stroke-linejoin="round"/>
<path d="M20.1695 20.155C18.3183 21.8502 15.8639 22.8798 13.1599 22.8798C10.4559 22.8798 8.00153 21.8502 6.15033 20.155C6.25433 19.1774 6.87833 18.2206 7.99113 17.4718C10.8407 15.579 15.4999 15.579 18.3287 17.4718C19.4415 18.2206 20.0655 19.1774 20.1695 20.155Z" stroke="black" stroke-width="1.56" stroke-linecap="round" stroke-linejoin="round"/>
<path d="M13.1599 22.8801C18.9037 22.8801 23.5599 18.2238 23.5599 12.4801C23.5599 6.73632 18.9037 2.08008 13.1599 2.08008C7.41619 2.08008 2.75995 6.73632 2.75995 12.4801C2.75995 18.2238 7.41619 22.8801 13.1599 22.8801Z" stroke="black" stroke-width="1.56" stroke-linecap="round" stroke-linejoin="round"/>
</svg>
