<svg width="25" height="24" viewBox="0 0 25 24" fill="none" xmlns="http://www.w3.org/2000/svg">
<g clip-path="url(#clip0_1_12907)">
<rect width="24" height="24" transform="translate(0.640381)" fill="#FCD45C"/>
<path d="M9.98926 1.5C12.0739 1.49826 13.8579 2.22612 15.3096 3.67773C16.7608 5.12907 17.4893 6.91178 17.4902 8.99512C17.4902 9.90355 17.3295 10.7848 17.0078 11.6348C16.7502 12.3152 16.4216 12.9222 16.0244 13.4551L23.3535 20.7822L23.707 21.1357L23.3535 21.4893L22.4912 22.3535L22.1377 22.707L21.7832 22.3535L14.4531 15.0234C13.884 15.4463 13.2515 15.7844 12.5557 16.0342C11.7111 16.3373 10.8569 16.4912 9.99512 16.4912C7.91094 16.4912 6.12785 15.7636 4.67773 14.3145C3.22762 12.8652 2.5 11.0831 2.5 8.99902C2.50001 6.91513 3.2266 5.13243 4.6748 3.68164C6.12321 2.23071 7.90505 1.50175 9.98926 1.5ZM9.99512 3.7207C8.50389 3.72006 7.26515 4.22747 6.24707 5.24609C5.22858 6.26526 4.72072 7.50428 4.7207 8.99414C4.7207 10.484 5.22857 11.723 6.24707 12.7422C7.26546 13.7612 8.50394 14.2692 9.99414 14.2686H9.99512C11.4858 14.2684 12.7251 13.7614 13.7441 12.7432C14.7631 11.725 15.2703 10.4856 15.2695 8.99414C15.2687 7.50242 14.7615 6.26341 13.7441 5.24609C12.7267 4.22873 11.4871 3.72145 9.99512 3.7207Z" fill="black" stroke="black"/>
</g>
<defs>
<clipPath id="clip0_1_12907">
<rect width="24" height="24" fill="white" transform="translate(0.640381)"/>
</clipPath>
</defs>
</svg>
