<svg width="18" height="18" viewBox="0 0 18 18" fill="none" xmlns="http://www.w3.org/2000/svg">
<path d="M4.00284 0.0557281L6.96856 5.14289H0V4.71431C0 2.34857 1.7357 0.394272 4.00284 0.0557281ZM12.54 5.14285H7.95856L4.95857 0H9.54L12.54 5.14285ZM18 4.71427V5.14285H13.53L10.53 0H13.2857C15.8914 0 18 2.10856 18 4.71427ZM0 6.00001V13.2857C0 15.8914 2.10856 18 4.71427 18H13.2857C15.8914 18 18 15.8914 18 13.2857V6.00001H0ZM11.5714 12.0814L8.14716 14.0271C7.57717 14.3529 6.85717 13.95 6.85717 13.3029V9.41144C6.85717 8.76431 7.57717 8.36143 8.14716 8.68716L11.5714 10.6329C12.1414 10.9543 12.1414 11.76 11.5714 12.0814Z" fill="black"/>
</svg>
