<svg width="26" height="25" viewBox="0 0 26 25" fill="none" xmlns="http://www.w3.org/2000/svg">
<path d="M12.925 13.291C12.8522 13.2806 12.7586 13.2806 12.6754 13.291C10.845 13.2286 9.38904 11.731 9.38904 9.8902C9.38904 8.0078 10.9074 6.479 12.8002 6.479C14.6826 6.479 16.2114 8.0078 16.2114 9.8902C16.201 11.731 14.7554 13.2286 12.925 13.291Z" stroke="black" stroke-width="2" stroke-linecap="round" stroke-linejoin="round"/>
<path d="M19.81 20.155C17.9588 21.8502 15.5044 22.8798 12.8004 22.8798C10.0964 22.8798 7.64197 21.8502 5.79077 20.155C5.89477 19.1774 6.51877 18.2206 7.63157 17.4718C10.4812 15.579 15.1404 15.579 17.9692 17.4718C19.082 18.2206 19.706 19.1774 19.81 20.155Z" stroke="black" stroke-width="2" stroke-linecap="round" stroke-linejoin="round"/>
<path d="M12.8003 22.8801C18.544 22.8801 23.2003 18.2238 23.2003 12.4801C23.2003 6.73632 18.544 2.08008 12.8003 2.08008C7.05651 2.08008 2.40027 6.73632 2.40027 12.4801C2.40027 18.2238 7.05651 22.8801 12.8003 22.8801Z" stroke="black" stroke-width="2" stroke-linecap="round" stroke-linejoin="round"/>
</svg>
