<svg width="21" height="21" viewBox="0 0 21 21" fill="none" xmlns="http://www.w3.org/2000/svg">
<path d="M18.7486 7.70608L4.72394 0.755099C4.17046 0.482043 3.54627 0.386389 2.93646 0.481178C2.32665 0.575967 1.76091 0.856586 1.31636 1.28478C0.871816 1.71297 0.5701 2.26789 0.452353 2.87388C0.334605 3.47988 0.406556 4.10745 0.658395 4.67105L3.07781 10.0338C3.13273 10.1635 3.16129 10.3028 3.1618 10.4436C3.16231 10.5845 3.13478 10.724 3.0808 10.854L0.700503 16.2343C0.498879 16.6919 0.414762 17.1926 0.455796 17.691C0.496831 18.1893 0.661715 18.6696 0.935466 19.088C1.20922 19.5064 1.58315 19.8497 2.02329 20.0868C2.46343 20.3239 2.95582 20.4472 3.45571 20.4455C3.92389 20.4391 4.38472 20.3281 4.80446 20.1205L18.7781 13.0675C19.2738 12.8159 19.6898 12.4313 19.9797 11.9569C20.2696 11.4825 20.4221 10.9368 20.4201 10.3808C20.418 9.82473 20.2616 9.28018 19.9682 8.80789C19.6748 8.33559 19.2561 7.95412 18.7586 7.70604L18.7486 7.70608ZM17.8716 11.2803L3.89799 18.3333C3.71449 18.4222 3.50818 18.4529 3.30673 18.4213C3.10528 18.3896 2.91832 18.2971 2.77092 18.1562C2.62351 18.0152 2.52272 17.8325 2.48204 17.6326C2.44136 17.4327 2.46275 17.2252 2.54334 17.0378L4.91363 11.6576C4.94431 11.5858 4.97075 11.5122 4.99283 11.4373L11.8824 11.4122C12.1476 11.4112 12.4016 11.3049 12.5884 11.1166C12.7752 10.9283 12.8797 10.6735 12.8787 10.4082C12.8777 10.143 12.7715 9.88891 12.5833 9.702C12.395 9.5151 12.1403 9.41064 11.8751 9.4116L4.98554 9.43669C4.96292 9.36192 4.93594 9.28854 4.90475 9.21692L2.49533 3.85412C2.41338 3.66733 2.39048 3.45994 2.4297 3.25975C2.46892 3.05957 2.56838 2.87617 2.71476 2.73414C2.86113 2.59211 3.04741 2.49824 3.24862 2.46512C3.44984 2.432 3.65637 2.46122 3.84051 2.54884L17.8652 9.49982C18.0293 9.58317 18.1672 9.7102 18.2637 9.86693C18.3603 10.0237 18.4117 10.204 18.4124 10.3881C18.4131 10.5722 18.3629 10.7529 18.2675 10.9103C18.1721 11.0678 18.0351 11.1958 17.8716 11.2803Z" fill="black"/>
</svg>
