<svg width="21" height="21" viewBox="0 0 21 21" fill="none" xmlns="http://www.w3.org/2000/svg">
<path d="M23.4128 24.769L14.24 15.5968C13.5076 16.2207 12.6653 16.7036 11.7131 17.0454C10.761 17.3872 9.80396 17.5581 8.84204 17.5581C6.49634 17.5581 4.51099 16.7461 2.88599 15.1222C1.26099 13.4982 0.448486 11.5135 0.448486 9.16795C0.448486 6.82239 1.26001 4.83667 2.88306 3.21079C4.5061 1.58491 6.49048 0.770999 8.83618 0.769046C11.1819 0.767093 13.1682 1.57954 14.7952 3.2064C16.4221 4.83325 17.2361 6.81897 17.2371 9.16355C17.2371 10.1811 17.0569 11.1659 16.6965 12.118C16.3362 13.0701 15.8625 13.8845 15.2756 14.5612L24.4485 23.732L23.4128 24.769ZM8.84204 16.0918C10.7854 16.0918 12.4265 15.4229 13.7654 14.0851C15.1042 12.7473 15.7732 11.1063 15.7722 9.16209C15.7712 7.21787 15.1023 5.57735 13.7654 4.24051C12.4285 2.90368 10.7878 2.23478 8.84351 2.2338C6.89917 2.23282 5.25806 2.90173 3.92017 4.24051C2.58228 5.5793 1.91333 7.21982 1.91333 9.16209C1.91333 11.1044 2.58228 12.7449 3.92017 14.0837C5.25806 15.4224 6.89868 16.0928 8.84204 16.0918Z" fill="black"/>
</svg>
